#N canvas 432 70 1004 659 10; 
#X obj 325 521 outlet~; 
#X obj 12 81 loadbang; 
#X obj 12 129 symbol \$1; 
#X obj 39 153 symbol \$2; 
#X obj 351 99 r play\$1; 
#X obj 415 99 r stop\$1; 
#X msg 414 252 0; 
#X text 76 130 NAME of sound object; 
#X text 102 152 PATH to its file; 
#X msg 11 326 mama /tmp/mama.wav 2; 
#X obj 514 189 f; 
#X obj 505 214 audce_aux_time2samples; 
#X symbolatom 459 275 10 0 0 0 - - -; 
#X obj 26 356 audce_aux_file \$1 \$2; 
#X msg 540 140 0; 
#X obj 382 122 bng 15 250 50 0 empty empty empty 17 7 0 10 -262144 
-1 -1; 
#X obj 351 179 print Play_Received!; 
#X obj 529 82 r TimeOf\$1; 
#N canvas 0 22 450 300 SomeTests 0; 
#X obj -315 -135 audce_aux_playmonofile~; 
#X obj -239 -82 dac~; 
#X msg -128 -83 0; 
#X msg -267 -163 ./teste.wav; 
#X obj -192 15 dac~; 
#X obj -197 -21 readsf~ \$3; 
#X obj -112 -19 readsf~ 1; 
#X msg -107 -45 open ./vln1.aif 0 \, 1; 
#X msg -72 -78 open ./CAVACO.wav 0 \, 1; 
#X connect 0 0 1 0; 
#X connect 2 0 0 2; 
#X connect 2 0 5 0; 
#X connect 2 0 6 0; 
#X connect 3 0 0 0; 
#X connect 5 0 4 0; 
#X connect 6 0 4 1; 
#X connect 7 0 6 0; 
#X connect 8 0 6 0; 
#X restore 899 510 pd SomeTests; 
#X obj 26 532 cnv 15 100 60 empty empty empty 20 12 0 14 -233017 -66577 
0; 
#X obj 26 414 audce_aux_objtransp \$1; 
#X obj 26 466 audce_aux_objtime \$1; 
#X text 598 81 Receives the time offset in dec.secs to start playing 
; 
#X obj 540 117 loadbang; 
#X text 569 140 Test box for inputing a time to start playing for Object 
\$1; 
#X msg 594 372 stop; 
#X text 632 356 Stop timer and rewind!; 
#X obj 380 521 outlet~; 
#X obj 435 521 outlet~; 
#X obj 490 520 outlet~; 
#X obj 546 519 outlet~; 
#X obj 601 519 outlet~; 
#X text 605 398 NOTE 1: if soundfile has SR different from the one 
Pd is using \, than samples will be incorrect above.; 
#X obj 370 317 audce_aux_playmcfile~; 
#X text 598 117 If not time offset \, then starts from beginning.; 
#X text 543 161 Time in dec.secs (should be available here before any 
playing); 
#X obj 371 146 t b b; 
#X text 525 59 TIME Management; 
#X text 305 59 PLAY/STOP Management; 
#X text 606 328 MULTICHANNEL SOUND FILE PLAYER Patch; 
#X obj 12 181 pack s s; 
#X text 305 75 (Messages received from TRANSPORT); 
#X text 515 252 (Message received from FILE object); 
#X obj 459 252 r File\$1; 
#X text 648 210 Converts cents.secs to samples on-the-fly.; 
#X text 648 226 Current Pd sample rate is used.; 
#X msg 83 301 pause; 
#X obj 83 276 r ppause\$1; 
#X obj 153 277 r pplay\$1; 
#X msg 153 302 play; 
#X msg 221 302 stop; 
#X obj 221 277 r sstop\$1; 
#X text 171 326 (test message); 
#N canvas 789 229 450 300 Comments 0; 
#X text 29 183 - criados:; 
#X text 23 13 Problema versão 2010:; 
#X text 23 36 - Problema versão 2010: play\$1 se recebe playNAME de 
fora ele só inicia do zero e não de onde parou \, porque quem guarda 
de onde parou é o objtime que não está recebendo esta mensagem de 
play\$1; 
#X text 29 95 - Explicação: r play\$1 aqui foi criado para receber 
mensagem do transport interno do patch; 
#X text 31 135 - Corrigir: corrigir no transporte a estrutura para 
enviar a mensagem de play localmente --> s \$1-play\$1 e corrigir aqui 
no audce_L4_objplay~ para r \$1-play\$1; 
#X text 42 205 ppause\$1 \, pplay\$1 e sstop\$1 --> enviam comandos 
para o transporte \, para que este sim controle o audce_L4_objplay~ 
; 
#X restore 829 536 pd Comments 2018 version; 
#N canvas 68 80 450 300 credits 0; 
#X text 45 52 AUDIENCE/OA v.1.0.rel.250510.rgs. audce_L4_objplay~. 
BSD and GPL applies. Copyright AUDIENCE Team \, 2010; 
#X text 16 22 Credits and history:; 
#X restore 906 608 pd credits; 
#X text 799 609 AUDIENCE(C)-2025; 
#X text 6 11 AUDIENCE audce_L4_objplay5~; 
#N canvas 84 73 633 351 get-Duration-NoChns 0; 
#X obj 143 75 soundfiler; 
#X msg 227 124 \$1; 
#X floatatom 143 125 0 0 0 0 - - -; 
#X obj 67 17 bng 15 250 50 0 empty empty empty 17 7 0 10 -262144 -1 
-1; 
#X msg 427 124 \$3; 
#X floatatom 227 190 0 0 0 0 - - -; 
#X floatatom 427 192 0 0 0 0 - - -; 
#X obj 200 101 t b l; 
#X obj 143 215 /; 
#X floatatom 143 239 0 0 0 0 - - -; 
#X obj 161 279 s Duration\$1; 
#X obj 15 16 inlet; 
#X text 154 190 sample rate; 
#X text 346 192 No. channels; 
#X text 49 124 No. of samples; 
#X text 10 240 Duration (in seconds); 
#X obj 143 302 outlet; 
#X obj 427 304 outlet; 
#X obj 437 281 s NoChns\$1; 
#X msg 117 52 read \$1; 
#X floatatom 328 145 0 0 0 0 - - -; 
#X obj 328 304 outlet; 
#X msg 328 124 0; 
#X text 260 139 Set header size to 0, f 10; 
#X connect 0 0 2 0; 
#X connect 0 1 7 0; 
#X connect 1 0 5 0; 
#X connect 2 0 8 0; 
#X connect 3 0 19 0; 
#X connect 4 0 6 0; 
#X connect 5 0 8 1; 
#X connect 6 0 17 0; 
#X connect 6 0 18 0; 
#X connect 7 0 2 0; 
#X connect 7 1 1 0; 
#X connect 7 1 4 0; 
#X connect 7 1 22 0; 
#X connect 8 0 9 0; 
#X connect 9 0 10 0; 
#X connect 9 0 16 0; 
#X connect 11 0 19 0; 
#X connect 19 0 0 0; 
#X connect 20 0 21 0; 
#X connect 22 0 20 0; 
#X restore 216 212 pd get-Duration-NoChns; 
#X text 407 16 era: audce_L4_objplay~ NAME /path/file.wav NoChns Duration 
; 
#X text 33 37 USAGE: audce_L4_objplay~ NAME /path/file.wav; 
#X obj 12 106 t b b; 
#X obj 218 120 r Duration\$1; 
#X obj 217 166 r NoChns\$1; 
#X floatatom 218 142 0 0 0 0 - - -; 
#X floatatom 217 188 0 0 0 0 - - -; 
#X floatatom 492 116 0 0 0 0 - - -; 
#X floatatom 562 277 0 0 0 0 - - -; 
#X msg 12 302 \$1 \$2; 
#X text 10 200 no need to send this pack as \$1 and \$2 are used to 
create the audce_aux_file \$1 \$2 \, except when new path to file is 
received above., f 30; 
#X obj 91 82 r NewPathTo\$1; 
#X connect 1 0 3 0; 
#X connect 2 0 40 0; 
#X connect 3 0 40 1; 
#X connect 3 0 57 0; 
#X connect 4 0 16 0; 
#X connect 4 0 36 0; 
#X connect 5 0 6 0; 
#X connect 6 0 33 1; 
#X connect 9 0 13 0; 
#X connect 10 0 11 2; 
#X connect 11 0 33 3; 
#X connect 11 0 66 0; 
#X connect 12 0 33 2; 
#X connect 14 0 10 1; 
#X connect 15 0 36 0; 
#X connect 17 0 10 1; 
#X connect 17 0 65 0; 
#X connect 23 0 14 0; 
#X connect 25 0 20 0; 
#X connect 33 0 0 0; 
#X connect 33 1 27 0; 
#X connect 33 2 28 0; 
#X connect 33 3 29 0; 
#X connect 33 4 30 0; 
#X connect 33 5 31 0; 
#X connect 33 6 25 0; 
#X connect 36 0 33 0; 
#X connect 36 1 10 0; 
#X connect 40 0 67 0; 
#X connect 43 0 12 0; 
#X connect 46 0 20 0; 
#X connect 47 0 46 0; 
#X connect 48 0 49 0; 
#X connect 49 0 20 0; 
#X connect 50 0 20 0; 
#X connect 51 0 50 0; 
#X connect 57 1 33 4; 
#X connect 57 2 33 5; 
#X connect 60 0 2 0; 
#X connect 60 1 3 0; 
#X connect 61 0 63 0; 
#X connect 62 0 64 0; 
#X connect 67 0 13 0; 
#X connect 69 0 3 1; 
#X connect 69 0 60 0; 
#X coords 0 -1 1 1 243 110 2 20 350; 
