#N canvas 336 229 881 515 10; 
#X floatatom 76 175 0 0 0 0 - - -; 
#X floatatom 12 175 0 0 0 0 - - -; 
#X obj 13 210 hsl 200 15 0 1 0 0 empty \$0-SetSliderTime empty -2 -8 
0 10 -203904 -1 -1 0 1; 
#X text 65 175 :; 
#X text 15 190 min; 
#X text 45 190 sec; 
#X text 84 190 dc; 
#X floatatom 43 175 0 0 0 0 - - -; 
#X text 33 176 :; 
#X obj 10 42 cnv 15 100 60 empty empty empty 20 12 0 14 -233017 -66577 
0; 
#X obj 13 45 loadbang; 
#X msg 12 142 0; 
#X text 306 98 NAME of object; 
#X text 305 124 DURATION of object (ms); 
#X floatatom 239 167 8 0 0 0 - - -; 
#X obj 323 192 / 1000; 
#X text 294 170 Duration = End of scale (in ms); 
#X text 366 193 Duration in seconds; 
#X text 304 277 Time in scale (to set slider); 
#N canvas 342 88 419 235 MinSecDec_2_Sec 0; 
#X obj 80 39 inlet; 
#X obj 160 39 inlet; 
#X obj -3 40 inlet; 
#X text -3 17 mins; 
#X text 157 16 dec.secs; 
#X text 78 16 secs; 
#X obj 160 106 t b; 
#X obj -3 195 outlet; 
#X obj 160 66 * 1; 
#X obj 80 66 * 10; 
#X obj -3 66 * 600; 
#X obj 181 168 expr ($f1*1) + ($f2*1) + ($f3*1); 
#X text 75 147 total ammount in deciseconds; 
#X text -7 89 ------------------------------------ values in deciseconds 
; 
#X obj -3 171 / 10; 
#X text 42 196 total ammount in seconds; 
#X obj 113 107 +; 
#X obj 45 142 +; 
#X connect 0 0 9 0; 
#X connect 1 0 8 0; 
#X connect 1 0 16 0; 
#X connect 2 0 10 0; 
#X connect 9 0 16 1; 
#X connect 10 0 17 1; 
#X connect 14 0 7 0; 
#X connect 16 0 17 0; 
#X connect 17 0 14 0; 
#X restore 247 227 pd MinSecDec_2_Sec; 
#N canvas 144 35 450 300 TimeIncrementer 0; 
#X obj 59 75 inlet; 
#X obj 112 73 inlet; 
#X obj 60 237 outlet; 
#X obj 60 179 t f f; 
#X text 21 32 Ao receber um bang no inlet da equerda \, começa a contar 
o tempo.; 
#X text 154 68 O inlet da direita serve pra configurar; 
#X text 154 82 o instante inicial.; 
#X text 174 202 O instante atual pode ser acessado; 
#X text 174 213 a qualquer momento através da variável; 
#X text 174 224 timeNow.; 
#X text 24 258 O valor do instante atual (em ms) é emitido periodicamente 
por este outlet; 
#X obj 87 203 v Time; 
#X obj 59 119 metro 100; 
#X obj 91 152 f 1; 
#X obj 133 169 + 1; 
#X connect 0 0 12 0; 
#X connect 1 0 13 1; 
#X connect 3 0 2 0; 
#X connect 3 1 11 0; 
#X connect 12 0 13 0; 
#X connect 13 0 3 0; 
#X connect 13 0 14 0; 
#X connect 14 0 13 1; 
#X restore 343 325 pd TimeIncrementer; 
#X floatatom 292 388 5 0 0 0 - - -; 
#X text 370 360 TimeHolder; 
#X text 435 359 (Time is in deciseconds); 
#N canvas 46 29 314 199 DeciSeconds2MinSecDc 0; 
#X obj 186 107 outlet; 
#X obj 40 82 div 60; 
#X obj 40 106 outlet; 
#X text 39 127 mins; 
#X obj 40 55 div 10; 
#X obj 114 107 outlet; 
#X obj 40 18 inlet; 
#X obj 186 82 mod 10; 
#X text 184 127 deci.secs.; 
#X text 114 126 secs.; 
#X text 80 19 Time in deciseconds; 
#X obj 114 85 mod 60; 
#X connect 1 0 2 0; 
#X connect 4 0 1 0; 
#X connect 4 0 11 0; 
#X connect 6 0 4 0; 
#X connect 6 0 7 0; 
#X connect 7 0 0 0; 
#X connect 11 0 5 0; 
#X restore 343 387 pd DeciSeconds2MinSecDc; 
#X obj 10 254 expr $f1*$f2; 
#X floatatom 10 304 5 0 0 0 - - -; 
#X obj 10 277 * 10; 
#X msg 247 276 set \$1; 
#X obj 500 113 route rew reset stop run ff; 
#X msg 627 138 10; 
#X obj 503 333 +; 
#X msg 503 141 -10; 
#X msg 545 142 0; 
#X text 512 156 rew; 
#X text 542 157 reset; 
#X text 637 154 ff; 
#X msg 524 87 rew; 
#X msg 557 87 reset; 
#X msg 602 87 ff; 
#X floatatom 534 387 5 0 0 0 - - -; 
#X obj 534 313 expr if ($f1 >= 10*$f2 \, 10*$f2 \, $f1) \;; 
#X obj 534 336 expr if ($f1 >= 0 \, $f1 \, 0) \;; 
#X msg 636 87 run; 
#X msg 672 86 stop; 
#X text 558 195 stop; 
#X text 590 223 run; 
#X floatatom 291 354 5 0 0 0 - - -; 
#X msg 533 196 0; 
#X msg 563 223 100; 
#X obj 132 113 t f; 
#X floatatom 95 362 5 0 0 0 - - -; 
#X floatatom 195 389 5 0 0 0 - - -; 
#X text 61 377 time in seconds; 
#X text 140 406 time(secs)/duration; 
#X obj 343 356 f; 
#X obj 239 121 float \$2; 
#X obj 239 97 symbol \$1; 
#X obj 366 414 s TimeOf\$1; 
#X text 436 414 Broadcast Time cursor position of the object.; 
#X text 532 292 Keep cursor inside 0 and Duration; 
#X obj 132 44 r Duration\$1; 
#X obj 500 45 r \$1ObjTime; 
#X obj 666 263 s play\$1; 
#X obj 666 241 spigot; 
#X floatatom 699 221 1 0 0 0 - - -; 
#X obj 247 299 s \$0-SetSliderTime; 
#X text 13 465 AUDIENCE/OA v.1.0.rel.250510.rgs. audce_aux_objtime. 
BSD and GPL applies. Copyright AUDIENCE Team \, 2010; 
#X text 2 9 USAGE: audce_aux_objtime NAME DURATION; 
#X text 521 63 Receives messages sent for this object instance; 
#X text 710 86 (for tests); 
#X text 141 63 This object instance can receive DURATION via inlet 
too; 
#X obj 247 252 expr if ($f2 == 0 \, 1 \, $f1/$f2) \;; 
#X obj 13 69 t b b b; 
#X connect 0 0 19 2; 
#X connect 1 0 19 0; 
#X connect 2 0 25 0; 
#X connect 7 0 19 1; 
#X connect 10 0 73 0; 
#X connect 11 0 1 0; 
#X connect 11 0 7 0; 
#X connect 11 0 0 0; 
#X connect 14 0 15 0; 
#X connect 15 0 25 1; 
#X connect 15 0 41 1; 
#X connect 15 0 72 1; 
#X connect 19 0 51 0; 
#X connect 19 0 72 0; 
#X connect 20 0 47 0; 
#X connect 20 0 55 0; 
#X connect 24 0 1 0; 
#X connect 24 1 7 0; 
#X connect 24 2 0 0; 
#X connect 25 0 27 0; 
#X connect 27 0 26 0; 
#X connect 27 0 55 0; 
#X connect 28 0 66 0; 
#X connect 29 0 32 0; 
#X connect 29 1 33 0; 
#X connect 29 2 48 0; 
#X connect 29 3 49 0; 
#X connect 29 4 30 0; 
#X connect 30 0 31 0; 
#X connect 30 0 64 0; 
#X connect 31 0 41 0; 
#X connect 32 0 31 0; 
#X connect 32 0 64 0; 
#X connect 33 0 55 0; 
#X connect 37 0 29 0; 
#X connect 38 0 29 0; 
#X connect 39 0 29 0; 
#X connect 41 0 42 0; 
#X connect 42 0 40 0; 
#X connect 42 0 55 0; 
#X connect 43 0 29 0; 
#X connect 44 0 29 0; 
#X connect 48 0 20 0; 
#X connect 48 0 65 0; 
#X connect 49 0 20 0; 
#X connect 49 0 65 0; 
#X connect 50 0 14 0; 
#X connect 55 0 20 1; 
#X connect 55 0 31 1; 
#X connect 55 0 24 0; 
#X connect 55 0 21 0; 
#X connect 55 0 58 0; 
#X connect 56 0 14 0; 
#X connect 61 0 50 0; 
#X connect 62 0 29 0; 
#X connect 64 0 63 0; 
#X connect 65 0 64 1; 
#X connect 72 0 28 0; 
#X connect 72 0 52 0; 
#X connect 73 0 11 0; 
#X connect 73 1 56 0; 
#X connect 73 2 57 0; 
#X coords 0 -1 1 1 231 60 2 3 170; 
