#N canvas 195 33 1177 748 12;
#X declare -path Libs;
#X text 326 630 Left;
#X text 374 630 Right;
#X obj 330 600 dac~ 1 2;
#X text 425 631 Saída estéreo pronta para escuta em fone (L e R)
;
#X obj 19 21 r ori_rcv;
#X obj 881 639 print audce;
#X text 972 631 p/ debugging: manda p/ console, f 24;
#X text 691 287 Saídas: sinais de audio W' \, X' \, Y' e Z' (rotacionados)
, f 55;
#X text 92 20 Entrada: recebe mensagem no formato 'ori_rcv X Y Z',
f 53;
#X text 434 95 player (audce_L4_objplay6~ snd1);
#X text 425 652 saída de audio para pd4web repassar;
#X text 974 686 Saida: devolve metadados para vsat (browser), f 24
;
#X obj 881 691 s audceback;
#X obj 436 119 Libs/audce_L4_objplay6~ snd1 audce.wav;
#X obj 1032 13 declare -path Libs;
#X obj 138 288 audce_L4_amb_rot~ 1, f 22;
#X obj 42 98 r alfa;
#X text 450 557 Decodificador (ambisonic -> stereo);
#X obj 416 290 audce_L4_amb_rot~ 1, f 22;
#X obj 285 558 audce_L4_amb_3rd~ 1 1;
#N canvas 0 25 588 391 eq_regiao1 0;
#X obj 152 200 *~ 1;
#X obj 99 200 *~ 1;
#X obj 99 138 lop~ 16000;
#X obj 187 138 lop~ 16000;
#X obj 325 200 *~ 1;
#X obj 272 200 *~ 1;
#X obj 272 138 lop~ 16000;
#X obj 360 138 lop~ 16000;
#X obj 41 33 inlet;
#X obj 96 34 inlet;
#X obj 158 34 inlet~;
#X obj 213 35 inlet~;
#X obj 271 35 inlet~;
#X obj 326 36 inlet~;
#X obj 95 276 outlet~;
#X obj 159 276 outlet~;
#X obj 225 276 outlet~;
#X obj 289 276 outlet~;
#X connect 0 0 15 0;
#X connect 1 0 14 0;
#X connect 2 0 1 0;
#X connect 3 0 0 0;
#X connect 4 0 17 0;
#X connect 5 0 16 0;
#X connect 6 0 5 0;
#X connect 7 0 4 0;
#X connect 8 0 0 1;
#X connect 8 0 1 1;
#X connect 8 0 5 1;
#X connect 8 0 4 1;
#X connect 9 0 7 1;
#X connect 9 0 6 1;
#X connect 9 0 3 1;
#X connect 9 0 2 1;
#X connect 10 0 2 0;
#X connect 11 0 3 0;
#X connect 12 0 6 0;
#X connect 13 0 7 0;
#X restore 195 416 pd eq_regiao1;
#X f 14;
#N canvas 0 25 588 391 eq_regiao2 0;
#X obj 152 200 *~ 1;
#X obj 99 200 *~ 1;
#X obj 99 138 lop~ 16000;
#X obj 187 138 lop~ 16000;
#X obj 325 200 *~ 1;
#X obj 272 200 *~ 1;
#X obj 272 138 lop~ 16000;
#X obj 360 138 lop~ 16000;
#X obj 41 33 inlet;
#X obj 96 34 inlet;
#X obj 158 34 inlet~;
#X obj 213 35 inlet~;
#X obj 271 35 inlet~;
#X obj 326 36 inlet~;
#X obj 95 276 outlet~;
#X obj 159 276 outlet~;
#X obj 225 276 outlet~;
#X obj 289 276 outlet~;
#X connect 0 0 15 0;
#X connect 1 0 14 0;
#X connect 2 0 1 0;
#X connect 3 0 0 0;
#X connect 4 0 17 0;
#X connect 5 0 16 0;
#X connect 6 0 5 0;
#X connect 7 0 4 0;
#X connect 8 0 0 1;
#X connect 8 0 1 1;
#X connect 8 0 5 1;
#X connect 8 0 4 1;
#X connect 9 0 7 1;
#X connect 9 0 6 1;
#X connect 9 0 3 1;
#X connect 9 0 2 1;
#X connect 10 0 2 0;
#X connect 11 0 3 0;
#X connect 12 0 6 0;
#X connect 13 0 7 0;
#X restore 397 416 pd eq_regiao2;
#X f 14;
#X text 311 284 Rotacionador Regiao 1, f 13;
#X text 588 287 Rotacionador Regiao 2, f 13;
#N canvas 492 117 913 640 logic_eq 0;
#X obj 44 19 inlet;
#X obj 54 529 outlet;
#X obj 123 529 outlet;
#X msg 116 19 ori_rcv 2 3 2;
#X msg 235 18 ori_rcv 1 1 0;
#X msg 462 18 ori_rcv 1 -1 0;
#X text 72 551 vol1;
#X text 472 559 vol2;
#X text 115 551 eq1;
#X text 514 558 eq2;
#X obj 453 537 outlet;
#X obj 522 537 outlet;
#N canvas 25 25 628 485 treat_ori_rcv 0;
#X obj 83 46 unpack f f f;
#X floatatom 270 143 5 0 0 0 - - -;
#X obj 270 96 expr sqrt($f1*$f1 + $f2*$f2 +$f3*$f3);
#X text 315 143 norma;
#X floatatom 140 144 5 0 0 0 - - -;
#X floatatom 182 143 5 0 0 0 - - -;
#X floatatom 226 143 5 0 0 0 - - -;
#X obj 270 119 expr if ($f1==0 \, 1 \, $f1);
#X floatatom 82 321 5 0 0 0 - - -;
#X text 125 323 azimute_rad;
#X obj 82 356 * 57.2958, f 12;
#X floatatom 82 388 5 0 0 0 - - -;
#X text 126 388 azimute_deg;
#X obj 122 254 f;
#X obj 164 254 f;
#X obj 207 254 f;
#X obj 83 16 inlet;
#X obj 82 425 outlet;
#X obj 65 208 t b b b;
#X obj 82 288 expr atan2($f1/$f3 \, $f2/$f3);
#X obj 252 254 f;
#X obj 65 185 delay 0.01;
#X connect 0 0 2 0;
#X connect 0 0 4 0;
#X connect 0 1 2 1;
#X connect 0 1 5 0;
#X connect 0 2 2 2;
#X connect 0 2 6 0;
#X connect 1 0 20 1;
#X connect 1 0 21 0;
#X connect 2 0 7 0;
#X connect 4 0 13 1;
#X connect 5 0 14 1;
#X connect 6 0 15 1;
#X connect 7 0 1 0;
#X connect 8 0 10 0;
#X connect 10 0 11 0;
#X connect 11 0 17 0;
#X connect 13 0 19 1;
#X connect 14 0 19 0;
#X connect 16 0 0 0;
#X connect 18 0 14 0;
#X connect 18 1 13 0;
#X connect 18 2 20 0;
#X connect 19 0 8 0;
#X connect 20 0 19 2;
#X connect 21 0 18 0;
#X restore 18 116 pd treat_ori_rcv;
#X floatatom 18 156 5 0 0 0 - - -;
#X text 62 156 azimute_deg;
#X floatatom 187 116 5 0 360 0 - - -;
#X floatatom 233 117 5 0 180 0 - - -;
#X floatatom 288 118 5 0 1 0 - - -;
#X floatatom 332 118 5 0 0 0 - - -;
#X floatatom 391 117 5 0 1 0 - - -;
#X floatatom 434 118 5 0 0 0 - - -;
#X text 432 98 Reg.2;
#X text 328 98 Reg.1;
#N canvas 621 237 647 498 crossfade 0;
#X text 21 67 If no time value is given \, \$2 (default 20) is used.
;
#X text 20 10 cross-fade between two signals \, using approximately
equal power., f 66;
#X obj 191 175 unpack;
#X obj 191 150 t l b;
#X obj 288 135 f \$2;
#X obj 288 159 sel 0;
#X obj 239 175 f;
#X obj 288 111 loadbang;
#X obj 288 181 20;
#X obj 167 201 * 1;
#X text 22 48 \$0-cf is a list with cross-fade level (from 0 to 1)
and time to make the fade, f 77;
#X floatatom 198 258 5 0 0 0 - - -;
#X obj 198 228 line;
#X obj 46 321 cos;
#X obj 145 125 r \$0-cf;
#X obj 87 123 inlet;
#X obj 84 260 * 3.14159;
#X obj 84 284 / 2;
#X obj 126 322 sin;
#X obj 46 392 outlet;
#X obj 126 392 outlet;
#X text 35 421 for reg.1;
#X text 123 421 for reg.2;
#X connect 2 0 9 0;
#X connect 2 1 12 1;
#X connect 3 0 2 0;
#X connect 3 1 6 0;
#X connect 4 0 5 0;
#X connect 5 0 8 0;
#X connect 5 1 6 1;
#X connect 6 0 12 1;
#X connect 7 0 4 0;
#X connect 8 0 6 1;
#X connect 9 0 12 0;
#X connect 12 0 11 0;
#X connect 12 0 16 0;
#X connect 13 0 19 0;
#X connect 14 0 3 0;
#X connect 15 0 3 0;
#X connect 16 0 17 0;
#X connect 17 0 18 0;
#X connect 17 0 13 0;
#X connect 18 0 20 0;
#X restore 328 383 pd crossfade;
#X msg 22 317 \$1 10;
#X obj 19 193 expr abs($f1-$f2);
#X floatatom 30 219 5 0 0 0 - - -;
#X text 235 140 delta;
#X text 189 138 alfa;
#X floatatom 22 288 5 0 0 0 - - -;
#X floatatom 123 436 10 0 0 0 - - -;
#X floatatom 123 500 10 0 0 0 - - -;
#X floatatom 522 443 10 0 0 0 - - -;
#X obj 54 497 * 1;
#X obj 453 503 * 1;
#X obj 142 76 route ori_rcv alfa delta vol1 fcut1 vol2 fcut2;
#X text 289 139 vol1;
#X text 335 139 fcut1;
#X text 389 141 vol2;
#X text 435 141 fcut2;
#X floatatom 522 506 10 0 0 0 - - -;
#X obj 22 360 print region;
#X text 200 436 crossfade value for region 1;
#X text 600 445 crossfade value for region 2;
#X obj 643 18 loadbang;
#X msg 514 82 0;
#X msg 559 90 180;
#X obj 15 263 expr if ($f2==180 \, 0 \, (if ($f1<$f2 \, 1-log10(10-9*$f1/$f2)
\, 1))), f 65;
#X msg 462 46 ori_rcv 1 0 0;
#X msg 602 105 16000;
#X obj 123 472 expr $f2+(16000-$f2)*$f1;
#X obj 522 478 expr $f2+(16000-$f2)*$f1;
#X msg 347 18 ori_rcv 0 1 0;
#X connect 0 0 35 0;
#X connect 3 0 35 0;
#X connect 4 0 35 0;
#X connect 5 0 35 0;
#X connect 12 0 13 0;
#X connect 13 0 25 0;
#X connect 15 0 25 1;
#X connect 16 0 47 1;
#X connect 17 0 33 1;
#X connect 18 0 50 1;
#X connect 19 0 34 1;
#X connect 20 0 51 1;
#X connect 23 0 30 0;
#X connect 23 1 32 0;
#X connect 24 0 23 0;
#X connect 24 0 41 0;
#X connect 25 0 26 0;
#X connect 26 0 47 0;
#X connect 29 0 24 0;
#X connect 30 0 33 0;
#X connect 30 0 50 0;
#X connect 31 0 2 0;
#X connect 32 0 34 0;
#X connect 32 0 51 0;
#X connect 33 0 1 0;
#X connect 34 0 10 0;
#X connect 35 0 12 0;
#X connect 35 1 15 0;
#X connect 35 2 16 0;
#X connect 35 3 17 0;
#X connect 35 4 18 0;
#X connect 35 5 19 0;
#X connect 35 6 20 0;
#X connect 40 0 11 0;
#X connect 44 0 45 0;
#X connect 44 0 46 0;
#X connect 44 0 48 0;
#X connect 44 0 49 0;
#X connect 45 0 15 0;
#X connect 46 0 16 0;
#X connect 47 0 29 0;
#X connect 48 0 35 0;
#X connect 49 0 20 0;
#X connect 49 0 18 0;
#X connect 50 0 31 0;
#X connect 51 0 40 0;
#X connect 52 0 35 0;
#X restore 22 288 pd logic_eq;
#X text 18 372 Logic eq (calcula volumes e freq corte de filtros lowpass
para aplicar nos sons da regiao 1 e 2 de acordo com a direcao do vetor
ori_rcv), f 15;
#X text 526 415 Equalizadores de regiao (destaca o som da regiao 1
ou 2 aplicando os parametros de vol e EQ calculados para cada uma de
acordo com o direcao do vetor ori_rcv);
#X text 470 496 Sons ambisonics de ambas as regioes sao somados (superposicao
de mundos sonoros superpostos ao mesmo ambiente fisico), f 65;
#X obj 55 123 r delta;
#X obj 79 176 r fcut1;
#X obj 69 149 r vol1;
#X obj 100 226 r fcut2;
#X obj 92 202 r vol2;
#N canvas 0 25 622 367 informacoes_sobre_patch 0;
#X text 55 92 receive NewPathTosnd1 (recebe nome arquivo ambisonic
/path/sound.wav), f 70;
#X text 56 112 receive pplaysnd1 (recebe bang p/ play);
#X text 55 132 receive ppausesnd1 (recebe bang p/ pause);
#X text 55 151 receive sstopsnd1 (recebe bang p/ stop);
#X text 45 47 Entrada: patch snd1 tocador ao lado recebe diretamente
comandos p/ abrir arquivo \, play \, pause e stop:;
#X text 56 171 send snd1played (envia bang quando audio acaba);
#X restore 882 583 pd informacoes_sobre_patch;
#X connect 4 0 15 0;
#X connect 4 0 24 0;
#X connect 4 0 18 0;
#X connect 13 0 15 0;
#X connect 13 1 15 1;
#X connect 13 2 15 2;
#X connect 13 3 15 3;
#X connect 13 4 18 0;
#X connect 13 5 18 1;
#X connect 13 6 18 2;
#X connect 13 7 18 3;
#X connect 15 0 20 2;
#X connect 15 1 20 3;
#X connect 15 2 20 4;
#X connect 15 3 20 5;
#X connect 16 0 24 0;
#X connect 18 0 21 2;
#X connect 18 1 21 3;
#X connect 18 2 21 4;
#X connect 18 3 21 5;
#X connect 19 0 2 0;
#X connect 19 1 2 1;
#X connect 20 0 19 0;
#X connect 20 1 19 1;
#X connect 20 2 19 2;
#X connect 20 3 19 3;
#X connect 21 0 19 0;
#X connect 21 1 19 1;
#X connect 21 2 19 2;
#X connect 21 3 19 3;
#X connect 24 0 20 0;
#X connect 24 1 20 1;
#X connect 24 2 21 0;
#X connect 24 3 21 1;
#X connect 28 0 24 0;
#X connect 29 0 24 0;
#X connect 30 0 24 0;
#X connect 31 0 24 0;
#X connect 32 0 24 0;
