#N canvas 0 0 925 1132 12; 
#X declare -path Libs; 
#X declare -lib audience; 
#X declare -path WebPatch; 
#X text 24 851 Left; 
#X text 72 851 Right; 
#X obj 36 821 dac~ 1 2; 
#X text 206 794 Saída estéreo pronta para escuta em fone (L e R); 
#X obj 5 635 r ori_rcv; 
#X obj 409 816 print audce; 
#X text 500 798 p/ debugging: manda p/ console, f 25; 
#X text 381 142 receive NewPathTosnd1 (recebe nome arquivo ambisonic /path/sound.wav), f 70; 
#X text 382 162 receive pplaysnd1 (recebe bang p/ play); 
#X text 381 182 receive ppausesnd1 (recebe bang p/ pause); 
#X text 381 201 receive sstopsnd1 (recebe bang p/ stop); 
#X text 410 700 Saídas: sinais de audio W' \, X' \, Y' e Z' (rotacionados), f 57; 
#X text 115 29 Entrada: recebe mensagem no formato 'ori_rcv X Y Z', f 53; 
#X text 371 97 Entrada: patch snd1 tocador ao lado recebe diretamente comandos p/ abrir arquivo \, play \, pause e stop:; 
#X text 99 74 player (audce_L4_objplay5~ snd1); 
#X text 281 686 ROTACIONADOR; 
#X text 258 744 DECODIFICADOR (ambisonic -> stereo); 
#X text 109 821 saída de audio para pd4web repassar; 
#X text 504 853 Saida: devolve metadados para vsat (browser), f 26; 
#X obj 411 868 s audceback; 
#X obj 561 34 declare -path Libs; 
#X text 382 221 send snd1played (envia bang quando audio acaba); 
#X obj 2 4 declare -lib audience; 
#X obj 36 686 audce_L4_amb_rot~ 1, f 30; 
#X obj 36 744 audce_L4_amb_3rd~ 1 1; 
#X msg 5 660 ori_rcv \$1 \$2 \$3; 
#X obj 166 4 declare -path WebPatch; 
#X obj 22 410 readsf~ 4, f 33; 
#X obj 250 439 bng 20 250 50 0 empty empty empty 0 -10 0 12 #fcfcfc #000000 #000000; 
#X obj 22 151 r NewPathTosnd1; 
#X obj 22 236 t b a; 
#X obj 22 286 list, f 5; 
#X text 64 233 Salva o path do audio para ler novamente; 
#X msg 22 335 open \$1; 
#X obj 134 261 r pplaysnd1; 
#X obj 219 261 r ppausesnd1; 
#X msg 219 286 stop; 
#X msg 315 286 stop; 
#X obj 315 261 r pstopsnd1; 
#X obj 250 464 t b b; 
#X text 290 464 Para fazer o loop; 
#X msg 134 286 start; 
#X connect 4 0 25 0; 
#X connect 23 0 24 0; 
#X connect 23 1 24 1; 
#X connect 23 2 24 2; 
#X connect 23 3 24 3; 
#X connect 24 0 2 0; 
#X connect 24 1 2 1; 
#X connect 25 0 23 0; 
#X connect 27 0 23 0; 
#X connect 27 1 23 1; 
#X connect 27 2 23 2; 
#X connect 27 3 23 3; 
#X connect 27 4 28 0; 
#X connect 28 0 39 0; 
#X connect 29 0 30 0; 
#X connect 30 0 31 0; 
#X connect 30 1 31 1; 
#X connect 31 0 33 0; 
#X connect 33 0 27 0; 
#X connect 34 0 41 0; 
#X connect 35 0 36 0; 
#X connect 36 0 27 0; 
#X connect 37 0 27 0; 
#X connect 38 0 37 0; 
#X connect 39 0 41 0; 
#X connect 39 1 31 0; 
#X connect 41 0 27 0; 
