#N canvas 311 25 1440 794 12; 
#X declare -path Libs; 
#X text 24 431 Left; 
#X text 72 431 Right; 
#X obj 36 401 dac~ 1 2; 
#X text 148 365 Saída estéreo pronta para escuta em fone (L e R); 
#X obj 36 29 r ori_rcv; 
#X obj 409 456 print audce; 
#X text 500 448 p/ debugging: manda p/ console, f 25; 
#X text 381 142 receive NewPathTosnd1 (recebe nome arquivo ambisonic /path/sound.wav), f 70; 
#X text 382 162 receive pplaysnd1 (recebe bang p/ play); 
#X text 381 182 receive ppausesnd1 (recebe bang p/ pause); 
#X text 381 201 receive sstopsnd1 (recebe bang p/ stop); 
#X text 303 290 Saídas: sinais de audio W' \, X' \, Y' e Z' (rotacionados), f 57; 
#X text 115 29 Entrada: recebe mensagem no formato 'ori_rcv X Y Z', f 53; 
#X text 371 97 Entrada: patch snd1 tocador ao lado recebe diretamente comandos p/ abrir arquivo \, play \, pause e stop:; 
#X text 99 74 player (audce_L4_objplay5~ snd1); 
#X text 281 266 ROTACIONADOR; 
#X text 258 324 DECODIFICADOR (ambisonic -> stereo); 
#X text 109 401 saída de audio para pd4web repassar; 
#X text 504 503 Saida: devolve metadados para vsat (browser), f 26; 
#X obj 411 508 s audceback; 
#X obj 101 101 audce_L4_objplay5~ snd1 audce.wav; 
#X obj 561 34 declare -path Libs; 
#X text 382 221 send snd1played (envia bang quando audio acaba); 
#X obj 36 266 audce_L4_amb_rot~ 1, f 30; 
#X obj 36 324 audce_L4_amb_3rd~ 1 1; 
#X connect 4 0 23 0; 
#X connect 20 0 23 0; 
#X connect 20 1 23 1; 
#X connect 20 2 23 2; 
#X connect 20 3 23 3; 
#X connect 23 0 24 0; 
#X connect 23 1 24 1; 
#X connect 23 2 24 2; 
#X connect 23 3 24 3; 
#X connect 24 0 2 0; 
#X connect 24 1 2 1; 
